<svg xmlns="http://www.w3.org/2000/svg" xmlns:xlink="http://www.w3.org/1999/xlink" width="250" zoomAndPan="magnify" viewBox="0 0 187.5 187.499992" height="250" preserveAspectRatio="xMidYMid meet" version="1.0"><defs><g/><clipPath id="11d1d839c2"><path d="M 0.167969 0 L 187 0 L 187 187 L 0.167969 187 Z M 0.167969 0 " clip-rule="nonzero"/></clipPath><clipPath id="f444b2f84a"><path d="M 9.167969 0 L 178.5 0 C 180.886719 0 183.175781 0.949219 184.863281 2.636719 C 186.550781 4.324219 187.5 6.613281 187.5 9 L 187.5 178.332031 C 187.5 180.71875 186.550781 183.007812 184.863281 184.695312 C 183.175781 186.382812 180.886719 187.332031 178.5 187.332031 L 9.167969 187.332031 C 6.78125 187.332031 4.492188 186.382812 2.804688 184.695312 C 1.117188 183.007812 0.167969 180.71875 0.167969 178.332031 L 0.167969 9 C 0.167969 4.03125 4.199219 0 9.167969 0 " clip-rule="nonzero"/></clipPath></defs><g clip-path="url(#11d1d839c2)"><g clip-path="url(#f444b2f84a)"><path fill="#ffffff" d="M 0.167969 0 L 187.375 0 L 187.375 187.207031 L 0.167969 187.207031 Z M 0.167969 0 " fill-opacity="1" fill-rule="nonzero"/></g></g><g fill="#000000" fill-opacity="1"><g transform="translate(60.364433, 159.83731)"><g><path d="M 23 -21.796875 L 23 -110.59375 C 23 -117.925781 21.898438 -122.625 19.703125 -124.6875 C 17.503906 -126.757812 12.132812 -128.0625 3.59375 -128.59375 L 3.59375 -132.40625 L 63 -132.40625 L 63 -128.59375 C 54.601562 -128.195312 49.238281 -126.929688 46.90625 -124.796875 C 44.570312 -122.660156 43.40625 -117.925781 43.40625 -110.59375 L 43.40625 -21.796875 C 43.40625 -14.460938 44.601562 -9.695312 47 -7.5 C 49.394531 -5.300781 54.726562 -4.066406 63 -3.796875 L 63 0 L 3.59375 0 L 3.59375 -3.796875 C 12 -4.066406 17.332031 -5.265625 19.59375 -7.390625 C 21.863281 -9.523438 23 -14.328125 23 -21.796875 Z M 23 -21.796875 "/></g></g></g></svg>