<?xml version="1.0" encoding="UTF-8"?>
<svg id="Layer_1" data-name="Layer 1" xmlns="http://www.w3.org/2000/svg" viewBox="0 0 200 200">
  <defs>
    <style>
      .cls-1, .cls-2, .cls-3 {
        fill: none;
        stroke: #231f20;
        stroke-miterlimit: 10;
      }

      .cls-2 {
        stroke-width: 10px;
      }

      .cls-3 {
        stroke-width: .5px;
      }
    </style>
  </defs>
  <line class="cls-1" x1="10" y1="50" x2="190" y2="50"/>
  <line class="cls-1" x1="10" y1="150" x2="190" y2="150"/>
  <line class="cls-1" x1="50" y1="10" x2="50" y2="190"/>
  <line class="cls-1" x1="150" y1="10" x2="150" y2="190"/>
  <line class="cls-2" x1="100" y1="20" x2="20" y2="180"/>
  <line class="cls-2" x1="180" y1="180" x2="100" y2="20"/>
  <line class="cls-2" x1="30" y1="130" x2="170" y2="130"/>
  <line class="cls-1" x1="70" y1="115" x2="70" y2="135"/>
  <line class="cls-1" x1="80" y1="115" x2="80" y2="135"/>
  <line class="cls-1" x1="90" y1="115" x2="90" y2="135"/>
  <line class="cls-1" x1="100" y1="115" x2="100" y2="135"/>
  <line class="cls-1" x1="110" y1="110" x2="110" y2="135"/>
  <line class="cls-1" x1="120" y1="115" x2="120" y2="135"/>
  <line class="cls-1" x1="130" y1="115" x2="130" y2="135"/>
  <line class="cls-3" x1="70" y1="105" x2="70" y2="109"/>
  <g>
    <line class="cls-3" x1="79" y1="105" x2="79" y2="109"/>
    <line class="cls-3" x1="81" y1="105" x2="81" y2="109"/>
    <line class="cls-3" x1="90" y1="105" x2="90" y2="109"/>
    <line class="cls-3" x1="88" y1="105" x2="88" y2="109"/>
    <line class="cls-3" x1="92" y1="105" x2="92" y2="109"/>
    <line class="cls-3" x1="99" y1="105" x2="99" y2="109"/>
    <line class="cls-3" x1="100" y1="105" x2="101" y2="109"/>
    <line class="cls-3" x1="102" y1="105" x2="101" y2="109"/>
    <line class="cls-3" x1="109" y1="105" x2="110" y2="109"/>
    <line class="cls-3" x1="111" y1="105" x2="110" y2="109"/>
    <line class="cls-3" x1="118" y1="105" x2="119" y2="109"/>
    <line class="cls-3" x1="120" y1="105" x2="119" y2="109"/>
    <line class="cls-3" x1="121" y1="105" x2="121" y2="109"/>
    <line class="cls-3" x1="127" y1="105" x2="128" y2="109"/>
    <line class="cls-3" x1="129" y1="105" x2="128" y2="109"/>
    <line class="cls-3" x1="130" y1="105" x2="130" y2="109"/>
    <line class="cls-3" x1="131" y1="105" x2="131" y2="109"/>
  </g>
  <g>
    <path class="cls-1" d="m90,50c0,5.53,4.47,10,10,10"/>
    <path class="cls-1" d="m110,50c0,5.53-4.47,10-10,10"/>
  </g>
</svg>