<svg xmlns="http://www.w3.org/2000/svg" width="500" viewBox="0 0 375 374.999991" height="500" preserveAspectRatio="xMidYMid meet"><defs><clipPath id="35d15bc3df"><path d="M 39 37.71875 L 336 37.71875 L 336 336.96875 L 39 336.96875 Z M 39 37.71875 " clip-rule="nonzero"/></clipPath></defs><g clip-path="url(#35d15bc3df)"><path fill="#ffffff" d="M 333.300781 245.542969 C 331.683594 243.859375 329.460938 242.917969 327.136719 242.917969 L 314.308594 242.917969 C 309.710938 242.917969 305.929688 246.558594 305.769531 251.160156 C 304.84375 276.792969 298.160156 278.828125 289.515625 278.828125 C 280.316406 278.828125 271.414062 262.746094 264.992188 234.605469 C 267.566406 225.449219 271.492188 210.597656 276.484375 189.222656 L 306.410156 56.699219 C 306.976562 54.167969 306.367188 51.507812 304.75 49.472656 C 303.136719 47.4375 300.664062 46.269531 298.066406 46.269531 L 249.332031 46.269531 C 245.320312 46.269531 241.847656 49.054688 240.976562 52.972656 L 229.496094 104.914062 C 222.117188 87.070312 213.644531 72.492188 204.460938 62.007812 C 190.761719 46.34375 171.167969 37.71875 149.296875 37.71875 C 117.429688 37.71875 59.273438 59.339844 43.445312 140.351562 C 40.453125 155.304688 39 170.398438 39 186.488281 C 39 332.746094 137.238281 336.96875 148.441406 336.96875 C 188.011719 336.96875 217.414062 321.671875 239.644531 289.164062 C 250.21875 320.535156 265.796875 336.96875 285.242188 336.96875 C 304.539062 336.96875 314.609375 323.773438 322.613281 309.523438 C 330.554688 295.433594 334.703125 277.082031 335.675781 251.800781 C 335.769531 249.476562 334.90625 247.21875 333.300781 245.542969 Z M 207.589844 204.535156 C 202.921875 228.835938 196.441406 247.285156 191.960938 258.1875 C 177.269531 290.480469 162.042969 294.21875 151.859375 294.21875 C 140.863281 294.21875 107.402344 294.21875 107.402344 191.617188 C 107.402344 117.867188 122.9375 80.46875 153.570312 80.46875 C 161.316406 80.46875 182.445312 90.957031 212.214844 187.488281 Z M 207.589844 204.535156 " fill-opacity="1" fill-rule="nonzero"/></g></svg>
