<svg xmlns="http://www.w3.org/2000/svg" xmlns:xlink="http://www.w3.org/1999/xlink" width="500" zoomAndPan="magnify" viewBox="0 0 375 374.999991" height="500" preserveAspectRatio="xMidYMid meet" version="1.0"><defs><g/><clipPath id="f6d7092162"><path d="M 281.070312 229.46875 L 337.257812 229.46875 L 337.257812 259.410156 L 281.070312 259.410156 Z M 281.070312 229.46875 " clip-rule="nonzero"/></clipPath><clipPath id="f1f7b32066"><path d="M 224.644531 172.53125 L 337.5 172.53125 L 337.5 202.46875 L 224.644531 202.46875 Z M 224.644531 172.53125 " clip-rule="nonzero"/></clipPath><clipPath id="9cfcb44eb9"><path d="M 281.070312 115.238281 L 337.5 115.238281 L 337.5 145.179688 L 281.070312 145.179688 Z M 281.070312 115.238281 " clip-rule="nonzero"/></clipPath></defs><g clip-path="url(#f6d7092162)"><path fill="#94a3b8" d="M 281.070312 229.46875 L 337.320312 229.46875 L 337.320312 259.351562 L 281.070312 259.351562 Z M 281.070312 229.46875 " fill-opacity="1" fill-rule="nonzero"/></g><g fill="#0f172a" fill-opacity="1"><g transform="translate(14.903872, 261.157958)"><g><path d="M 193.765625 -37.15625 C 193.765625 -10.070312 187.164062 3.46875 173.96875 3.46875 C 171.882812 3.46875 169.859375 3.175781 167.890625 2.59375 C 165.921875 2.019531 164.242188 1.328125 162.859375 0.515625 C 161.472656 -0.285156 160.082031 -1.5 158.6875 -3.125 C 157.300781 -4.75 156.203125 -6.140625 155.390625 -7.296875 C 154.578125 -8.453125 153.707031 -10.242188 152.78125 -12.671875 C 151.863281 -15.109375 151.171875 -16.90625 150.703125 -18.0625 C 150.242188 -19.21875 149.664062 -21.238281 148.96875 -24.125 C 148.269531 -27.019531 147.804688 -28.929688 147.578125 -29.859375 C 147.347656 -30.785156 146.941406 -32.753906 146.359375 -35.765625 C 145.785156 -38.773438 145.5 -40.507812 145.5 -40.96875 L 144.796875 -40.96875 C 139.941406 -28.007812 131.722656 -17.363281 120.140625 -9.03125 C 108.566406 -0.695312 96.066406 3.46875 82.640625 3.46875 C 61.804688 3.46875 45.195312 -4.570312 32.8125 -20.65625 C 20.425781 -36.75 14.234375 -55.445312 14.234375 -76.75 C 14.234375 -98.507812 20.890625 -117.835938 34.203125 -134.734375 C 47.515625 -151.628906 64.820312 -160.078125 86.125 -160.078125 C 101.164062 -160.078125 112.96875 -154.347656 121.53125 -142.890625 C 130.101562 -131.429688 135.546875 -117.484375 137.859375 -101.046875 L 138.546875 -101.046875 L 149.671875 -156.609375 L 178.828125 -156.609375 C 173.734375 -128.128906 167.140625 -100.695312 159.046875 -74.3125 C 154.410156 -60.414062 152.09375 -53.125 152.09375 -52.4375 C 152.09375 -47.34375 154.582031 -40.972656 159.5625 -33.328125 C 164.539062 -25.691406 169.34375 -21.875 173.96875 -21.875 C 177.90625 -21.875 181.085938 -23.378906 183.515625 -26.390625 C 185.953125 -29.398438 187.171875 -32.988281 187.171875 -37.15625 Z M 131.265625 -80.90625 C 131.265625 -91.09375 130.046875 -101.101562 127.609375 -110.9375 C 125.179688 -120.78125 120.492188 -129.753906 113.546875 -137.859375 C 106.609375 -145.960938 97.925781 -150.015625 87.5 -150.015625 C 79.164062 -150.015625 72.101562 -147.234375 66.3125 -141.671875 C 60.53125 -136.117188 56.304688 -128.941406 53.640625 -120.140625 C 50.984375 -111.347656 49.078125 -103.015625 47.921875 -95.140625 C 46.765625 -87.273438 46.1875 -79.40625 46.1875 -71.53125 C 46.1875 -61.582031 47.285156 -52.035156 49.484375 -42.890625 C 51.679688 -33.742188 56.078125 -25.40625 62.671875 -17.875 C 69.273438 -10.351562 77.671875 -6.59375 87.859375 -6.59375 C 98.503906 -6.59375 107.296875 -11.164062 114.234375 -20.3125 C 121.179688 -29.457031 125.753906 -39.238281 127.953125 -49.65625 C 130.160156 -60.070312 131.265625 -70.488281 131.265625 -80.90625 Z M 131.265625 -80.90625 "/></g></g></g><g clip-path="url(#f1f7b32066)"><path fill="#475569" d="M 224.644531 172.53125 L 337.144531 172.53125 L 337.144531 202.414062 L 224.644531 202.414062 Z M 224.644531 172.53125 " fill-opacity="1" fill-rule="nonzero"/></g><g clip-path="url(#9cfcb44eb9)"><path fill="#1e293b" d="M 281.070312 115.238281 L 337.320312 115.238281 L 337.320312 145.121094 L 281.070312 145.121094 Z M 281.070312 115.238281 " fill-opacity="1" fill-rule="nonzero"/></g></svg>