<svg xmlns="http://www.w3.org/2000/svg" xmlns:xlink="http://www.w3.org/1999/xlink" width="500" zoomAndPan="magnify" viewBox="0 0 375 374.999991" height="500" preserveAspectRatio="xMidYMid meet" version="1.0"><defs><g/></defs><g fill="#0f172a" fill-opacity="1"><g transform="translate(12.59766, 324.709198)"><g><path d="M 334.796875 -64.203125 C 334.796875 -17.398438 323.394531 6 300.59375 6 C 297 6 293.5 5.5 290.09375 4.5 C 286.695312 3.5 283.796875 2.296875 281.390625 0.890625 C 278.992188 -0.503906 276.59375 -2.597656 274.1875 -5.390625 C 271.789062 -8.191406 269.894531 -10.59375 268.5 -12.59375 C 267.101562 -14.59375 265.601562 -17.691406 264 -21.890625 C 262.394531 -26.097656 261.191406 -29.203125 260.390625 -31.203125 C 259.597656 -33.203125 258.597656 -36.703125 257.390625 -41.703125 C 256.191406 -46.703125 255.394531 -50 255 -51.59375 C 254.601562 -53.195312 253.90625 -56.597656 252.90625 -61.796875 C 251.90625 -66.992188 251.40625 -69.992188 251.40625 -70.796875 L 250.203125 -70.796875 C 241.796875 -48.398438 227.59375 -30 207.59375 -15.59375 C 187.59375 -1.195312 165.992188 6 142.796875 6 C 106.796875 6 78.09375 -7.898438 56.6875 -35.703125 C 35.289062 -63.503906 24.59375 -95.800781 24.59375 -132.59375 C 24.59375 -170.195312 36.09375 -203.597656 59.09375 -232.796875 C 82.09375 -261.992188 111.992188 -276.59375 148.796875 -276.59375 C 174.796875 -276.59375 195.195312 -266.691406 210 -246.890625 C 224.800781 -227.097656 234.203125 -203 238.203125 -174.59375 L 239.40625 -174.59375 L 258.59375 -270.59375 L 309 -270.59375 C 300.195312 -221.394531 288.796875 -174 274.796875 -128.40625 C 266.796875 -104.40625 262.796875 -91.800781 262.796875 -90.59375 C 262.796875 -81.800781 267.09375 -70.800781 275.6875 -57.59375 C 284.289062 -44.394531 292.59375 -37.796875 300.59375 -37.796875 C 307.394531 -37.796875 312.894531 -40.394531 317.09375 -45.59375 C 321.300781 -50.800781 323.40625 -57.003906 323.40625 -64.203125 Z M 226.796875 -139.796875 C 226.796875 -157.398438 224.695312 -174.703125 220.5 -191.703125 C 216.300781 -208.703125 208.203125 -224.203125 196.203125 -238.203125 C 184.203125 -252.203125 169.203125 -259.203125 151.203125 -259.203125 C 136.796875 -259.203125 124.59375 -254.398438 114.59375 -244.796875 C 104.59375 -235.203125 97.289062 -222.800781 92.6875 -207.59375 C 88.09375 -192.394531 84.796875 -177.992188 82.796875 -164.390625 C 80.796875 -150.796875 79.796875 -137.195312 79.796875 -123.59375 C 79.796875 -106.394531 81.695312 -89.894531 85.5 -74.09375 C 89.300781 -58.300781 96.898438 -43.90625 108.296875 -30.90625 C 119.703125 -17.90625 134.203125 -11.40625 151.796875 -11.40625 C 170.203125 -11.40625 185.40625 -19.300781 197.40625 -35.09375 C 209.40625 -50.894531 217.300781 -67.796875 221.09375 -85.796875 C 224.894531 -103.796875 226.796875 -121.796875 226.796875 -139.796875 Z M 226.796875 -139.796875 "/></g></g></g></svg>