<svg xmlns="http://www.w3.org/2000/svg" xmlns:xlink="http://www.w3.org/1999/xlink" width="500" zoomAndPan="magnify" viewBox="0 0 375 374.999991" height="500" preserveAspectRatio="xMidYMid meet" version="1.0"><path stroke-linecap="butt" transform="matrix(0.75, 0, 0, 0.75, 0.0000045, -304.540761)" fill="none" stroke-linejoin="miter" d="M 463.281274 753.455439 C 463.281274 815.825235 448.046898 847.007528 417.578146 847.007528 C 412.760438 847.007528 408.072937 846.293987 403.515645 844.861695 C 399.088562 843.559611 395.244812 841.997111 391.989603 840.174195 C 388.734395 838.351278 385.479186 835.549194 382.223977 831.773152 C 379.098977 827.99711 376.625019 824.80961 374.802102 822.205443 C 372.979185 819.601277 370.96356 815.49711 368.750018 809.898151 C 366.666685 804.168984 365.036476 800.002317 363.864601 797.39815 C 362.822934 794.793983 361.520851 790.174191 359.958351 783.533566 C 358.395851 776.762732 357.354184 772.335648 356.833351 770.252315 C 356.312517 768.038773 355.338559 763.481481 353.906267 756.580439 C 352.604184 749.679397 351.953142 745.705438 351.953142 744.663772 L 350.390642 744.663772 C 339.192725 774.481482 320.244807 799.028359 293.552097 818.299193 C 266.859387 837.439819 238.083343 847.007528 207.223966 847.007528 C 159.177088 847.007528 120.895835 828.517944 92.385417 791.538775 C 63.86979 754.429397 49.609372 711.330436 49.609372 662.241891 C 49.609372 612.11168 64.906248 567.580427 95.510417 528.648132 C 126.239586 489.715838 166.145838 470.252295 215.234383 470.252295 C 249.869802 470.252295 277.015637 483.465838 296.677097 509.898131 C 316.468765 536.200216 329.036474 568.299177 334.375016 606.189804 L 335.937516 606.189804 L 361.520851 478.257504 L 428.708355 478.257504 C 416.989605 543.882508 401.822937 607.033554 383.203144 667.710642 C 372.52606 699.741894 367.187518 716.606478 367.187518 718.299187 C 367.187518 730.017937 372.916685 744.663772 384.375019 762.241898 C 395.833353 779.820024 406.901062 788.611691 417.578146 788.611691 C 426.69273 788.611691 434.046898 785.158566 439.645856 778.257524 C 445.244815 771.226273 448.046898 762.960648 448.046898 753.455439 Z M 319.14064 652.674182 C 319.14064 629.106472 316.338556 605.991888 310.739598 583.335636 C 305.140639 560.679385 294.333347 540.043967 278.317721 521.424174 C 262.437511 502.804381 242.447927 493.49188 218.359383 493.49188 C 199.218757 493.49188 182.942714 499.872089 169.531255 512.632506 C 156.250004 525.392924 146.552087 541.929383 140.427087 562.241885 C 134.307294 582.424178 129.880211 601.632512 127.145836 619.86168 C 124.541669 637.96064 123.239585 656.059599 123.239585 674.158559 C 123.239585 697.075227 125.781252 719.080437 130.859378 740.174188 C 135.937503 761.267939 146.026045 780.471066 161.130213 797.788775 C 176.364589 815.106485 195.703132 823.767943 219.140633 823.767943 C 243.75001 823.767943 264.000011 813.283568 279.880221 792.320025 C 295.895847 771.226273 306.442722 748.70023 311.520848 724.741895 C 316.598973 700.653352 319.14064 676.632517 319.14064 652.674182 Z M 319.14064 652.674182 " stroke="#0f172a" stroke-width="11" stroke-opacity="1" stroke-miterlimit="4"/></svg>