<svg xmlns="http://www.w3.org/2000/svg" xmlns:xlink="http://www.w3.org/1999/xlink" width="250" zoomAndPan="magnify" viewBox="0 0 187.5 187.499992" height="250" preserveAspectRatio="xMidYMid meet" version="1.0"><defs><g/><clipPath id="6c682b8e3e"><path d="M 0 0.167969 L 187 0.167969 L 187 187 L 0 187 Z M 0 0.167969 " clip-rule="nonzero"/></clipPath><clipPath id="5edd6df461"><path d="M 9 0.167969 L 178.332031 0.167969 C 180.71875 0.167969 183.007812 1.117188 184.695312 2.804688 C 186.382812 4.492188 187.332031 6.78125 187.332031 9.167969 L 187.332031 178.5 C 187.332031 180.886719 186.382812 183.175781 184.695312 184.863281 C 183.007812 186.550781 180.71875 187.5 178.332031 187.5 L 9 187.5 C 6.613281 187.5 4.324219 186.550781 2.636719 184.863281 C 0.949219 183.175781 0 180.886719 0 178.5 L 0 9.167969 C 0 4.199219 4.03125 0.167969 9 0.167969 " clip-rule="nonzero"/></clipPath></defs><g clip-path="url(#6c682b8e3e)"><g clip-path="url(#5edd6df461)"><path fill="#ffffff" d="M 0 0.167969 L 187.207031 0.167969 L 187.207031 187.375 L 0 187.375 Z M 0 0.167969 " fill-opacity="1" fill-rule="nonzero"/></g></g><g fill="#000000" fill-opacity="1"><g transform="translate(34.177372, 87.061188)"><g><path d="M 38.3125 -18.484375 L 36.484375 -18.484375 C 36.003906 -21.734375 35.226562 -23.820312 34.15625 -24.75 C 33.09375 -25.6875 30.9375 -26.15625 27.6875 -26.15625 L 16.078125 -26.15625 L 16.078125 -9.515625 C 16.078125 -6.265625 16.515625 -4.160156 17.390625 -3.203125 C 18.273438 -2.242188 20.265625 -1.679688 23.359375 -1.515625 L 23.359375 0 L 0.953125 0 L 0.953125 -1.515625 C 3.992188 -1.734375 5.914062 -2.304688 6.71875 -3.234375 C 7.519531 -4.171875 7.921875 -6.289062 7.921875 -9.59375 L 7.921875 -44.234375 C 7.921875 -47.066406 7.492188 -48.921875 6.640625 -49.796875 C 5.785156 -50.679688 3.890625 -51.226562 0.953125 -51.4375 L 0.953125 -52.953125 L 43.4375 -52.953125 L 43.6875 -41.515625 L 41.6875 -41.515625 C 40.988281 -45.085938 39.914062 -47.378906 38.46875 -48.390625 C 37.03125 -49.410156 34.046875 -49.921875 29.515625 -49.921875 L 18.640625 -49.921875 C 17.578125 -49.921875 16.882812 -49.742188 16.5625 -49.390625 C 16.238281 -49.046875 16.078125 -48.316406 16.078125 -47.203125 L 16.078125 -29.4375 L 27.6875 -29.4375 C 30.882812 -29.4375 33.03125 -29.898438 34.125 -30.828125 C 35.21875 -31.765625 36.003906 -33.835938 36.484375 -37.046875 L 38.3125 -37.046875 Z M 38.3125 -18.484375 "/></g></g></g><g fill="#000000" fill-opacity="1"><g transform="translate(70.318451, 163.250005)"><g><path d="M 54.796875 -26.71875 C 54.796875 -24.320312 54.53125 -21.972656 54 -19.671875 C 53.46875 -17.378906 52.476562 -15.003906 51.03125 -12.546875 C 49.59375 -10.097656 47.753906 -7.976562 45.515625 -6.1875 C 43.273438 -4.40625 40.300781 -2.925781 36.59375 -1.75 C 32.894531 -0.582031 28.695312 0 24 0 L 1.28125 0 L 1.28125 -1.515625 C 4.320312 -1.734375 6.253906 -2.269531 7.078125 -3.125 C 7.898438 -3.976562 8.3125 -5.84375 8.3125 -8.71875 L 8.3125 -44.234375 C 8.3125 -47.171875 7.925781 -49.039062 7.15625 -49.84375 C 6.382812 -50.644531 4.425781 -51.175781 1.28125 -51.4375 L 1.28125 -52.953125 L 22.875 -52.953125 C 27.726562 -52.953125 32.0625 -52.40625 35.875 -51.3125 C 39.6875 -50.226562 42.753906 -48.816406 45.078125 -47.078125 C 47.398438 -45.347656 49.320312 -43.296875 50.84375 -40.921875 C 52.363281 -38.546875 53.398438 -36.210938 53.953125 -33.921875 C 54.515625 -31.628906 54.796875 -29.226562 54.796875 -26.71875 Z M 46.078125 -26.15625 C 46.078125 -28.445312 45.847656 -30.644531 45.390625 -32.75 C 44.941406 -34.863281 44.128906 -37 42.953125 -39.15625 C 41.785156 -41.320312 40.265625 -43.175781 38.390625 -44.71875 C 36.523438 -46.269531 34.070312 -47.535156 31.03125 -48.515625 C 28 -49.503906 24.535156 -50 20.640625 -50 C 18.984375 -50 17.875 -49.785156 17.3125 -49.359375 C 16.757812 -48.929688 16.484375 -48.101562 16.484375 -46.875 L 16.484375 -6.234375 C 16.484375 -4.953125 16.773438 -4.082031 17.359375 -3.625 C 17.941406 -3.175781 19.035156 -2.953125 20.640625 -2.953125 C 37.597656 -2.953125 46.078125 -10.6875 46.078125 -26.15625 Z M 46.078125 -26.15625 "/></g></g></g><path stroke-linecap="butt" transform="matrix(0.536869, -0.522101, 0.522883, 0.537674, 25.274117, 138.546776)" fill="none" stroke-linejoin="miter" d="M 0.00136851 1.999414 L 219.340369 2.002185 " stroke="#000000" stroke-width="4" stroke-opacity="1" stroke-miterlimit="4"/><g fill="#000000" fill-opacity="1"><g transform="translate(128.08407, 161.212287)"><g><path d="M 3.75 -3 C 4.207031 -3 4.601562 -2.828125 4.9375 -2.484375 C 5.269531 -2.148438 5.4375 -1.753906 5.4375 -1.296875 C 5.4375 -0.847656 5.265625 -0.460938 4.921875 -0.140625 C 4.578125 0.171875 4.175781 0.328125 3.71875 0.328125 C 3.28125 0.328125 2.898438 0.171875 2.578125 -0.140625 C 2.253906 -0.460938 2.09375 -0.847656 2.09375 -1.296875 C 2.09375 -1.753906 2.257812 -2.148438 2.59375 -2.484375 C 2.925781 -2.828125 3.3125 -3 3.75 -3 Z M 3.75 -3 "/></g></g></g><g fill="#000000" fill-opacity="1"><g transform="translate(135.584058, 161.212287)"><g><path d="M 2.90625 -8.3125 C 2.945312 -7.050781 3.117188 -5.960938 3.421875 -5.046875 C 3.722656 -4.140625 4.113281 -3.460938 4.59375 -3.015625 C 5.070312 -2.566406 5.554688 -2.242188 6.046875 -2.046875 C 6.535156 -1.859375 7.050781 -1.765625 7.59375 -1.765625 C 8.550781 -1.765625 9.382812 -2.003906 10.09375 -2.484375 C 10.800781 -2.960938 11.515625 -3.773438 12.234375 -4.921875 L 12.71875 -4.703125 C 12.101562 -3.085938 11.242188 -1.847656 10.140625 -0.984375 C 9.035156 -0.128906 7.773438 0.296875 6.359375 0.296875 C 4.640625 0.296875 3.273438 -0.304688 2.265625 -1.515625 C 1.253906 -2.722656 0.75 -4.359375 0.75 -6.421875 C 0.75 -8.640625 1.332031 -10.421875 2.5 -11.765625 C 3.675781 -13.117188 5.179688 -13.796875 7.015625 -13.796875 C 8.535156 -13.796875 9.710938 -13.335938 10.546875 -12.421875 C 11.390625 -11.515625 11.925781 -10.144531 12.15625 -8.3125 Z M 2.96875 -9.265625 L 9.09375 -9.265625 C 8.894531 -10.566406 8.582031 -11.46875 8.15625 -11.96875 C 7.738281 -12.46875 7.070312 -12.71875 6.15625 -12.71875 C 4.351562 -12.71875 3.289062 -11.566406 2.96875 -9.265625 Z M 2.96875 -9.265625 "/></g></g></g><g fill="#000000" fill-opacity="1"><g transform="translate(148.90404, 161.212287)"><g><path d="M 0.75 -6.390625 C 0.75 -8.609375 1.40625 -10.394531 2.71875 -11.75 C 4.03125 -13.113281 5.5625 -13.796875 7.3125 -13.796875 C 8.570312 -13.796875 9.65625 -13.488281 10.5625 -12.875 C 11.476562 -12.269531 11.9375 -11.546875 11.9375 -10.703125 C 11.9375 -10.367188 11.796875 -10.078125 11.515625 -9.828125 C 11.234375 -9.578125 10.894531 -9.453125 10.5 -9.453125 C 9.820312 -9.453125 9.351562 -9.910156 9.09375 -10.828125 L 8.90625 -11.484375 C 8.75 -12.046875 8.550781 -12.425781 8.3125 -12.625 C 8.070312 -12.832031 7.679688 -12.9375 7.140625 -12.9375 C 5.921875 -12.9375 4.9375 -12.445312 4.1875 -11.46875 C 3.4375 -10.5 3.0625 -9.242188 3.0625 -7.703125 C 3.0625 -5.984375 3.492188 -4.578125 4.359375 -3.484375 C 5.234375 -2.398438 6.347656 -1.859375 7.703125 -1.859375 C 8.566406 -1.859375 9.304688 -2.066406 9.921875 -2.484375 C 10.546875 -2.910156 11.21875 -3.644531 11.9375 -4.6875 L 12.359375 -4.40625 C 12.160156 -4.007812 11.984375 -3.679688 11.828125 -3.421875 C 11.679688 -3.160156 11.410156 -2.769531 11.015625 -2.25 C 10.628906 -1.726562 10.242188 -1.304688 9.859375 -0.984375 C 9.484375 -0.671875 8.984375 -0.378906 8.359375 -0.109375 C 7.742188 0.160156 7.109375 0.296875 6.453125 0.296875 C 4.785156 0.296875 3.414062 -0.328125 2.34375 -1.578125 C 1.28125 -2.828125 0.75 -4.429688 0.75 -6.390625 Z M 0.75 -6.390625 "/></g></g></g><g fill="#000000" fill-opacity="1"><g transform="translate(78.661742, 48.971931)"><g><path d="M 3.75 -3 C 4.207031 -3 4.601562 -2.828125 4.9375 -2.484375 C 5.269531 -2.148438 5.4375 -1.753906 5.4375 -1.296875 C 5.4375 -0.847656 5.265625 -0.460938 4.921875 -0.140625 C 4.578125 0.171875 4.175781 0.328125 3.71875 0.328125 C 3.28125 0.328125 2.898438 0.171875 2.578125 -0.140625 C 2.253906 -0.460938 2.09375 -0.847656 2.09375 -1.296875 C 2.09375 -1.753906 2.257812 -2.148438 2.59375 -2.484375 C 2.925781 -2.828125 3.3125 -3 3.75 -3 Z M 3.75 -3 "/></g></g></g><g fill="#000000" fill-opacity="1"><g transform="translate(86.16173, 48.971931)"><g><path d="M 8.875 -10.859375 C 8.582031 -10.859375 8.210938 -11.03125 7.765625 -11.375 C 7.328125 -11.726562 7.039062 -11.90625 6.90625 -11.90625 C 6.5 -11.90625 6.046875 -11.613281 5.546875 -11.03125 C 5.046875 -10.457031 4.796875 -9.929688 4.796875 -9.453125 L 4.796875 -2.703125 C 4.796875 -1.835938 4.960938 -1.253906 5.296875 -0.953125 C 5.640625 -0.660156 6.320312 -0.492188 7.34375 -0.453125 L 7.34375 0 L 0.15625 0 L 0.15625 -0.453125 C 1.113281 -0.628906 1.707031 -0.828125 1.9375 -1.046875 C 2.164062 -1.265625 2.28125 -1.753906 2.28125 -2.515625 L 2.28125 -10.015625 C 2.28125 -10.679688 2.203125 -11.144531 2.046875 -11.40625 C 1.898438 -11.675781 1.640625 -11.8125 1.265625 -11.8125 C 0.941406 -11.8125 0.585938 -11.773438 0.203125 -11.703125 L 0.203125 -12.1875 C 1.804688 -12.695312 3.289062 -13.234375 4.65625 -13.796875 L 4.796875 -13.734375 L 4.796875 -10.984375 C 5.535156 -12.035156 6.164062 -12.765625 6.6875 -13.171875 C 7.207031 -13.585938 7.78125 -13.796875 8.40625 -13.796875 C 8.925781 -13.796875 9.328125 -13.65625 9.609375 -13.375 C 9.898438 -13.09375 10.046875 -12.703125 10.046875 -12.203125 C 10.046875 -11.785156 9.941406 -11.457031 9.734375 -11.21875 C 9.523438 -10.976562 9.238281 -10.859375 8.875 -10.859375 Z M 8.875 -10.859375 "/></g></g></g><g fill="#000000" fill-opacity="1"><g transform="translate(96.151723, 48.971931)"><g><path d="M 1.109375 -2.90625 C 1.109375 -3.269531 1.144531 -3.601562 1.21875 -3.90625 C 1.300781 -4.21875 1.441406 -4.507812 1.640625 -4.78125 C 1.847656 -5.050781 2.039062 -5.296875 2.21875 -5.515625 C 2.394531 -5.734375 2.660156 -5.957031 3.015625 -6.1875 C 3.378906 -6.425781 3.679688 -6.617188 3.921875 -6.765625 C 4.171875 -6.910156 4.539062 -7.085938 5.03125 -7.296875 C 5.519531 -7.515625 5.894531 -7.675781 6.15625 -7.78125 C 6.414062 -7.894531 6.820312 -8.0625 7.375 -8.28125 C 7.9375 -8.5 8.347656 -8.660156 8.609375 -8.765625 L 8.609375 -10.59375 C 8.609375 -12.25 7.847656 -13.078125 6.328125 -13.078125 C 5.734375 -13.078125 5.222656 -12.929688 4.796875 -12.640625 C 4.378906 -12.347656 4.171875 -12.003906 4.171875 -11.609375 C 4.171875 -11.453125 4.191406 -11.234375 4.234375 -10.953125 C 4.285156 -10.671875 4.3125 -10.488281 4.3125 -10.40625 C 4.3125 -10.070312 4.175781 -9.78125 3.90625 -9.53125 C 3.644531 -9.28125 3.332031 -9.15625 2.96875 -9.15625 C 2.625 -9.15625 2.320312 -9.285156 2.0625 -9.546875 C 1.8125 -9.804688 1.6875 -10.101562 1.6875 -10.4375 C 1.6875 -11.375 2.171875 -12.164062 3.140625 -12.8125 C 4.109375 -13.46875 5.300781 -13.796875 6.71875 -13.796875 C 8.363281 -13.796875 9.492188 -13.398438 10.109375 -12.609375 C 10.734375 -11.828125 11.046875 -10.625 11.046875 -9 L 11.046875 -3.15625 C 11.046875 -2.488281 11.109375 -2.03125 11.234375 -1.78125 C 11.367188 -1.53125 11.601562 -1.40625 11.9375 -1.40625 C 12.351562 -1.40625 12.796875 -1.597656 13.265625 -1.984375 L 13.265625 -1.203125 C 12.742188 -0.617188 12.285156 -0.222656 11.890625 -0.015625 C 11.503906 0.191406 11.0625 0.296875 10.5625 0.296875 C 9.9375 0.296875 9.476562 0.128906 9.1875 -0.203125 C 8.90625 -0.546875 8.722656 -1.109375 8.640625 -1.890625 C 6.921875 -0.429688 5.460938 0.296875 4.265625 0.296875 C 3.335938 0.296875 2.578125 0 1.984375 -0.59375 C 1.398438 -1.195312 1.109375 -1.96875 1.109375 -2.90625 Z M 8.609375 -3.6875 L 8.609375 -8.046875 C 6.804688 -7.378906 5.546875 -6.734375 4.828125 -6.109375 C 4.109375 -5.492188 3.75 -4.75 3.75 -3.875 C 3.75 -3.050781 3.945312 -2.4375 4.34375 -2.03125 C 4.75 -1.632812 5.179688 -1.4375 5.640625 -1.4375 C 6.316406 -1.4375 7.046875 -1.664062 7.828125 -2.125 C 8.148438 -2.3125 8.359375 -2.503906 8.453125 -2.703125 C 8.554688 -2.898438 8.609375 -3.226562 8.609375 -3.6875 Z M 8.609375 -3.6875 "/></g></g></g></svg>