<svg xmlns="http://www.w3.org/2000/svg" xmlns:xlink="http://www.w3.org/1999/xlink" width="250" zoomAndPan="magnify" viewBox="0 0 187.5 187.499992" height="250" preserveAspectRatio="xMidYMid meet" version="1.0"><defs><g/><clipPath id="cf8cda69f0"><path d="M 0.167969 0 L 187 0 L 187 187 L 0.167969 187 Z M 0.167969 0 " clip-rule="nonzero"/></clipPath><clipPath id="07c9da35f2"><path d="M 9.167969 0 L 178.5 0 C 180.886719 0 183.175781 0.949219 184.863281 2.636719 C 186.550781 4.324219 187.5 6.613281 187.5 9 L 187.5 178.332031 C 187.5 180.71875 186.550781 183.007812 184.863281 184.695312 C 183.175781 186.382812 180.886719 187.332031 178.5 187.332031 L 9.167969 187.332031 C 6.78125 187.332031 4.492188 186.382812 2.804688 184.695312 C 1.117188 183.007812 0.167969 180.71875 0.167969 178.332031 L 0.167969 9 C 0.167969 4.03125 4.199219 0 9.167969 0 " clip-rule="nonzero"/></clipPath></defs><g clip-path="url(#cf8cda69f0)"><g clip-path="url(#07c9da35f2)"><path fill="#ffffff" d="M 0.167969 0 L 187.375 0 L 187.375 187.207031 L 0.167969 187.207031 Z M 0.167969 0 " fill-opacity="1" fill-rule="nonzero"/></g></g><g fill="#000000" fill-opacity="1"><g transform="translate(21.462096, 159.83731)"><g><path d="M 141.40625 -128.59375 C 137.664062 -128.195312 134.894531 -127.765625 133.09375 -127.296875 C 131.300781 -126.828125 129.4375 -125.789062 127.5 -124.1875 C 125.5625 -122.59375 124.226562 -120.09375 123.5 -116.6875 C 122.769531 -113.289062 122.40625 -108.726562 122.40625 -103 L 122.40625 2.203125 L 119 2.203125 L 30.59375 -107.796875 L 30.59375 -29.40625 C 30.59375 -19.269531 31.789062 -12.566406 34.1875 -9.296875 C 36.59375 -6.035156 41.664062 -4.203125 49.40625 -3.796875 L 49.40625 0 L 2.40625 0 L 2.40625 -3.796875 C 10.664062 -4.328125 15.960938 -6.160156 18.296875 -9.296875 C 20.628906 -12.429688 21.796875 -19.132812 21.796875 -29.40625 L 21.796875 -117.59375 C 17.796875 -122.257812 14.628906 -125.257812 12.296875 -126.59375 C 9.960938 -127.925781 6.664062 -128.59375 2.40625 -128.59375 L 2.40625 -132.40625 L 36.59375 -132.40625 L 113.59375 -35.59375 L 113.59375 -103 C 113.59375 -113.132812 112.359375 -119.765625 109.890625 -122.890625 C 107.429688 -126.023438 102.269531 -127.925781 94.40625 -128.59375 L 94.40625 -132.40625 L 141.40625 -132.40625 Z M 141.40625 -128.59375 "/></g></g></g></svg>